<?xml version="1.0" encoding="utf-8"?>
<!-- Generator: Adobe Illustrator 16.0.0, SVG Export Plug-In . SVG Version: 6.00 Build 0)  -->
<!DOCTYPE svg PUBLIC "-//W3C//DTD SVG 1.1//EN" "http://www.w3.org/Graphics/SVG/1.1/DTD/svg11.dtd">
<svg version="1.1" id="Layer_1" xmlns="http://www.w3.org/2000/svg" xmlns:xlink="http://www.w3.org/1999/xlink" x="0px" y="0px"
	 width="100px" height="17.87px" viewBox="0 0 100 17.87" enable-background="new 0 0 100 17.87" xml:space="preserve">
<g>
	<path fill="#1D1D1B" d="M26.961,14.292c-0.422,0-0.743-0.131-0.962-0.395c-0.219-0.263-0.328-0.599-0.328-1.007V9.353h-0.734V8.93
		h0.734V7.216h0.567V8.93h1.213v0.423h-1.213v3.549c0,0.282,0.066,0.5,0.2,0.656s0.341,0.234,0.623,0.234h0.39v0.5H26.961z"/>
	<path fill="#1D1D1B" d="M32.156,14.292v-3.327c0-0.519-0.125-0.916-0.377-1.19c-0.253-0.274-0.62-0.412-1.102-0.412
		c-0.482,0-0.855,0.139-1.119,0.417c-0.263,0.278-0.395,0.673-0.395,1.185v3.327h-0.567V6.371h0.567v3.193
		c0.4-0.468,0.928-0.701,1.58-0.701c0.615,0,1.1,0.178,1.451,0.534c0.353,0.356,0.529,0.845,0.529,1.468v3.427H32.156z"/>
	<path fill="#1D1D1B" d="M34.516,11.733c0,0.686,0.148,1.211,0.445,1.577c0.297,0.365,0.73,0.548,1.301,0.548
		c0.319,0,0.588-0.05,0.807-0.15s0.443-0.265,0.674-0.495l0.422,0.334c-0.133,0.133-0.268,0.251-0.405,0.354
		c-0.138,0.102-0.282,0.188-0.435,0.256c-0.151,0.069-0.316,0.12-0.494,0.153s-0.379,0.049-0.602,0.049
		c-0.741,0-1.307-0.233-1.696-0.701s-0.584-1.15-0.584-2.047c0-0.868,0.188-1.542,0.567-2.025c0.378-0.482,0.904-0.723,1.58-0.723
		c0.674,0,1.201,0.23,1.58,0.689c0.378,0.46,0.566,1.102,0.566,1.925v0.256H34.516z M37.652,10.949
		c-0.007-0.092-0.018-0.174-0.033-0.245c-0.014-0.07-0.033-0.141-0.055-0.211c-0.022-0.07-0.049-0.146-0.078-0.228
		c-0.119-0.282-0.303-0.502-0.551-0.662c-0.248-0.159-0.529-0.239-0.84-0.239c-0.312,0-0.592,0.08-0.84,0.239
		c-0.249,0.16-0.433,0.38-0.551,0.662c-0.037,0.082-0.065,0.158-0.084,0.228c-0.019,0.071-0.035,0.141-0.05,0.211
		c-0.015,0.071-0.026,0.152-0.033,0.245c-0.008,0.093-0.015,0.202-0.022,0.328h3.16C37.668,11.151,37.66,11.042,37.652,10.949z"/>
	<path fill="#1D1D1B" d="M48.924,14.292v-3.327c0-0.519-0.127-0.916-0.379-1.19s-0.619-0.412-1.102-0.412
		c-0.467,0-0.836,0.136-1.107,0.406c-0.27,0.271-0.406,0.636-0.406,1.096v3.427h-0.566v-3.327c0-0.519-0.127-0.916-0.379-1.19
		s-0.619-0.412-1.102-0.412s-0.854,0.139-1.117,0.417c-0.264,0.278-0.396,0.673-0.396,1.185v3.327h-0.567V8.93h0.567v0.634
		c0.4-0.468,0.931-0.701,1.591-0.701c0.4,0,0.747,0.083,1.041,0.25c0.293,0.167,0.521,0.41,0.684,0.729
		c0.201-0.319,0.455-0.562,0.765-0.729c0.309-0.167,0.663-0.25,1.065-0.25c0.297,0,0.564,0.044,0.803,0.133
		c0.238,0.089,0.443,0.215,0.614,0.378c0.372,0.356,0.558,0.853,0.558,1.491v3.427H48.924z"/>
	<path fill="#1D1D1B" d="M54.897,12.768c-0.082,0.386-0.263,0.719-0.546,1.001c-0.192,0.193-0.412,0.339-0.662,0.439
		c-0.248,0.1-0.523,0.15-0.828,0.15c-0.601,0-1.098-0.196-1.49-0.59c-0.283-0.282-0.465-0.615-0.545-1.001
		c-0.082-0.386-0.123-0.771-0.123-1.157s0.041-0.771,0.123-1.157c0.08-0.385,0.262-0.719,0.545-1.001
		c0.393-0.393,0.89-0.59,1.49-0.59c0.305,0,0.58,0.05,0.828,0.15c0.25,0.1,0.47,0.247,0.662,0.439
		c0.283,0.282,0.464,0.616,0.546,1.001c0.081,0.386,0.122,0.771,0.122,1.157S54.979,12.382,54.897,12.768z M54.441,11.132
		c-0.008-0.163-0.027-0.325-0.062-0.484c-0.033-0.159-0.081-0.31-0.145-0.451c-0.063-0.141-0.149-0.267-0.261-0.378
		c-0.148-0.148-0.318-0.262-0.507-0.339c-0.188-0.078-0.392-0.117-0.606-0.117c-0.438,0-0.809,0.152-1.112,0.457
		c-0.111,0.111-0.198,0.237-0.262,0.378c-0.063,0.141-0.111,0.292-0.145,0.451s-0.054,0.321-0.062,0.484s-0.011,0.323-0.011,0.479
		s0.003,0.315,0.011,0.479s0.028,0.325,0.062,0.484c0.033,0.16,0.081,0.31,0.145,0.451s0.15,0.267,0.262,0.378
		c0.304,0.305,0.675,0.457,1.112,0.457c0.215,0,0.418-0.039,0.606-0.117c0.188-0.078,0.358-0.191,0.507-0.339
		c0.111-0.111,0.197-0.237,0.261-0.378s0.111-0.291,0.145-0.451c0.034-0.159,0.054-0.321,0.062-0.484
		c0.007-0.163,0.012-0.323,0.012-0.479S54.448,11.295,54.441,11.132z"/>
	<path fill="#1D1D1B" d="M59.804,14.292v-0.634c-0.4,0.467-0.927,0.701-1.579,0.701c-0.594,0-1.068-0.171-1.425-0.512
		c-0.37-0.356-0.556-0.853-0.556-1.491V8.93h0.566v3.326c0,0.52,0.127,0.917,0.379,1.191s0.619,0.412,1.102,0.412
		s0.854-0.139,1.117-0.417c0.264-0.278,0.396-0.673,0.396-1.185V8.93h0.567v5.362H59.804z"/>
	<path fill="#1D1D1B" d="M65.184,13.931c-0.39,0.286-0.915,0.428-1.575,0.428c-0.467,0-0.876-0.063-1.229-0.189
		c-0.352-0.125-0.666-0.318-0.939-0.578l0.389-0.39c0.416,0.438,1.002,0.657,1.758,0.657c0.527,0,0.928-0.091,1.202-0.273
		c0.274-0.181,0.411-0.454,0.411-0.817c0-0.282-0.081-0.494-0.243-0.634c-0.163-0.141-0.422-0.23-0.776-0.267l-0.888-0.078
		c-1.071-0.089-1.608-0.557-1.608-1.402c0-0.467,0.177-0.838,0.529-1.112C62.564,9,63.033,8.863,63.62,8.863
		c0.37,0,0.718,0.051,1.04,0.154c0.322,0.102,0.603,0.244,0.84,0.424L65.122,9.82c-0.415-0.305-0.917-0.457-1.502-0.457
		c-0.445,0-0.784,0.089-1.019,0.266c-0.233,0.177-0.35,0.432-0.35,0.763c0,0.281,0.086,0.491,0.26,0.631s0.449,0.229,0.826,0.266
		l0.865,0.078c0.223,0.022,0.43,0.057,0.621,0.105c0.192,0.048,0.357,0.126,0.494,0.234c0.137,0.107,0.246,0.247,0.326,0.417
		c0.082,0.17,0.123,0.386,0.123,0.646C65.768,13.257,65.572,13.645,65.184,13.931z"/>
	<path fill="#1D1D1B" d="M67.168,11.733c0,0.686,0.149,1.211,0.445,1.577c0.297,0.365,0.73,0.548,1.303,0.548
		c0.318,0,0.588-0.05,0.807-0.15s0.442-0.265,0.672-0.495l0.424,0.334c-0.134,0.133-0.27,0.251-0.406,0.354
		c-0.137,0.102-0.282,0.188-0.434,0.256c-0.152,0.069-0.318,0.12-0.496,0.153s-0.377,0.049-0.6,0.049
		c-0.742,0-1.309-0.233-1.697-0.701c-0.39-0.467-0.584-1.15-0.584-2.047c0-0.868,0.189-1.542,0.566-2.025
		c0.379-0.482,0.906-0.723,1.58-0.723c0.676,0,1.202,0.23,1.58,0.689c0.379,0.46,0.568,1.102,0.568,1.925v0.256H67.168z
		 M70.307,10.949c-0.008-0.092-0.02-0.174-0.033-0.245c-0.016-0.07-0.034-0.141-0.057-0.211c-0.021-0.07-0.048-0.146-0.078-0.228
		c-0.118-0.282-0.302-0.502-0.55-0.662c-0.249-0.159-0.528-0.239-0.841-0.239c-0.311,0-0.592,0.08-0.84,0.239
		c-0.248,0.16-0.432,0.38-0.551,0.662c-0.037,0.082-0.064,0.158-0.083,0.228c-0.019,0.071-0.035,0.141-0.05,0.211
		c-0.016,0.071-0.025,0.152-0.033,0.245c-0.008,0.093-0.016,0.202-0.023,0.328h3.16C70.32,11.151,70.313,11.042,70.307,10.949z"/>
	<path fill="#1D1D1B" d="M78.016,14.292v-3.327c0-0.519-0.125-0.916-0.377-1.19c-0.253-0.274-0.62-0.412-1.102-0.412
		c-0.482,0-0.855,0.139-1.119,0.417c-0.264,0.278-0.395,0.673-0.395,1.185v3.327h-0.567V6.371h0.567v3.193
		c0.4-0.468,0.927-0.701,1.58-0.701c0.615,0,1.1,0.178,1.451,0.534c0.353,0.356,0.529,0.845,0.529,1.468v3.427H78.016z"/>
	<path fill="#1D1D1B" d="M84.002,12.768c-0.082,0.386-0.264,0.719-0.545,1.001c-0.193,0.193-0.414,0.339-0.662,0.439
		s-0.525,0.15-0.829,0.15c-0.601,0-1.098-0.196-1.491-0.59c-0.281-0.282-0.463-0.615-0.545-1.001s-0.122-0.771-0.122-1.157
		s0.04-0.771,0.122-1.157c0.082-0.385,0.264-0.719,0.545-1.001c0.394-0.393,0.891-0.59,1.491-0.59c0.304,0,0.581,0.05,0.829,0.15
		c0.248,0.1,0.469,0.247,0.662,0.439c0.281,0.282,0.463,0.616,0.545,1.001c0.081,0.386,0.122,0.771,0.122,1.157
		S84.083,12.382,84.002,12.768z M83.546,11.132c-0.008-0.163-0.028-0.325-0.062-0.484s-0.082-0.31-0.145-0.451
		c-0.063-0.141-0.15-0.267-0.262-0.378c-0.148-0.148-0.316-0.262-0.506-0.339c-0.189-0.078-0.391-0.117-0.606-0.117
		c-0.438,0-0.809,0.152-1.112,0.457c-0.111,0.111-0.199,0.237-0.262,0.378c-0.063,0.141-0.111,0.292-0.145,0.451
		s-0.055,0.321-0.062,0.484s-0.011,0.323-0.011,0.479s0.004,0.315,0.011,0.479s0.028,0.325,0.062,0.484
		c0.033,0.16,0.081,0.31,0.145,0.451c0.063,0.141,0.15,0.267,0.262,0.378c0.304,0.305,0.675,0.457,1.112,0.457
		c0.216,0,0.417-0.039,0.606-0.117c0.189-0.078,0.357-0.191,0.506-0.339c0.111-0.111,0.198-0.237,0.262-0.378
		c0.063-0.141,0.111-0.291,0.145-0.451c0.033-0.159,0.054-0.321,0.062-0.484c0.007-0.163,0.011-0.323,0.011-0.479
		S83.553,11.295,83.546,11.132z"/>
	<path fill="#1D1D1B" d="M88.908,14.292v-0.634c-0.4,0.467-0.928,0.701-1.58,0.701c-0.594,0-1.068-0.171-1.424-0.512
		c-0.371-0.356-0.557-0.853-0.557-1.491V8.93h0.568v3.326c0,0.52,0.125,0.917,0.378,1.191c0.251,0.274,0.618,0.412,1.101,0.412
		s0.855-0.139,1.119-0.417c0.263-0.278,0.395-0.673,0.395-1.185V8.93h0.567v5.362H88.908z"/>
	<path fill="#1D1D1B" d="M94.287,13.931c-0.389,0.286-0.914,0.428-1.574,0.428c-0.467,0-0.877-0.063-1.229-0.189
		c-0.354-0.125-0.666-0.318-0.941-0.578l0.39-0.39c0.415,0.438,1.001,0.657,1.758,0.657c0.526,0,0.927-0.091,1.202-0.273
		c0.273-0.181,0.412-0.454,0.412-0.817c0-0.282-0.082-0.494-0.244-0.634c-0.164-0.141-0.422-0.23-0.777-0.267l-0.887-0.078
		c-1.072-0.089-1.608-0.557-1.608-1.402c0-0.467,0.177-0.838,0.528-1.112C91.669,9,92.138,8.863,92.725,8.863
		c0.37,0,0.717,0.051,1.039,0.154c0.323,0.102,0.604,0.244,0.84,0.424L94.227,9.82c-0.416-0.305-0.916-0.457-1.502-0.457
		c-0.445,0-0.785,0.089-1.019,0.266c-0.233,0.177-0.351,0.432-0.351,0.763c0,0.281,0.087,0.491,0.261,0.631s0.449,0.229,0.826,0.266
		l0.865,0.078c0.222,0.022,0.429,0.057,0.621,0.105s0.356,0.126,0.493,0.234c0.137,0.107,0.246,0.247,0.327,0.417
		s0.122,0.386,0.122,0.646C94.871,13.257,94.677,13.645,94.287,13.931z"/>
	<path fill="#1D1D1B" d="M96.273,11.733c0,0.686,0.148,1.211,0.444,1.577c0.297,0.365,0.731,0.548,1.302,0.548
		c0.318,0,0.588-0.05,0.807-0.15s0.443-0.265,0.674-0.495l0.422,0.334c-0.133,0.133-0.269,0.251-0.406,0.354
		c-0.137,0.102-0.281,0.188-0.434,0.256c-0.152,0.069-0.316,0.12-0.495,0.153c-0.178,0.033-0.378,0.049-0.601,0.049
		c-0.742,0-1.308-0.233-1.697-0.701c-0.389-0.467-0.584-1.15-0.584-2.047c0-0.868,0.189-1.542,0.568-2.025
		c0.378-0.482,0.904-0.723,1.58-0.723c0.674,0,1.201,0.23,1.579,0.689c0.378,0.46,0.567,1.102,0.567,1.925v0.256H96.273z
		 M99.41,10.949c-0.008-0.092-0.018-0.174-0.033-0.245c-0.015-0.07-0.033-0.141-0.056-0.211c-0.022-0.07-0.048-0.146-0.077-0.228
		c-0.119-0.282-0.303-0.502-0.551-0.662c-0.249-0.159-0.529-0.239-0.84-0.239c-0.313,0-0.592,0.08-0.84,0.239
		c-0.249,0.16-0.434,0.38-0.552,0.662c-0.037,0.082-0.064,0.158-0.083,0.228c-0.019,0.071-0.035,0.141-0.051,0.211
		c-0.015,0.071-0.025,0.152-0.033,0.245c-0.008,0.093-0.015,0.202-0.021,0.328h3.159C99.426,11.151,99.418,11.042,99.41,10.949z"/>
	<polygon fill="#1D1D1B" points="5.959,6.351 5.959,14.292 0,14.292 	"/>
	<polygon points="10.732,0 10.732,17.87 15.498,14.292 21.456,14.292 	"/>
</g>
</svg>
